<svg version="1.2" xmlns="http://www.w3.org/2000/svg" viewBox="0 0 331 182" width="331" height="182">

<style>.a{fill:#fefefe}.b{fill:#e6a768}.c{fill:#e8b179}.d{fill:#e8b17a}.e{fill:#e9b27c}.f{fill:#e5af79}.g{fill:#e3ad74}.h{fill:#e6ad74}.i{fill:#ddb28b}.j{fill:#fefdfd}.k{fill:#fefefd}.l{fill:#fdfcfb}.m{fill:#fff}</style><path class="a" d="m165.3-36.9c53.8 0 107.6 0 161.4-0.1 3.3 0 4 0.7 4 4q-0.2 159.3 0 318.7c0 3.3-0.7 4-4 4q-161.4-0.2-322.8 0c-3.2 0-3.9-0.7-3.9-4q0.2-159.4 0-318.8c0-3.2 0.7-3.9 3.9-3.9 53.8 0.1 107.6 0.1 161.4 0.1z"/><path class="b" d="m274.7 66.7q0 13.7 0 27.4c0 22.9-0.1 45.9 0.1 68.9 0 4.4-1.2 6-5.6 5.6-3.4-0.4-7-0.4-10.4 0-4.6 0.5-5.6-1.5-5.4-5.7 0.3-7.9-0.2-15.8 0.2-23.7 0.2-4.8-0.9-7-6.3-6.5-5 0.5-10.3-0.2-15.4 0.2-4.3 0.3-5.6-1.3-5-5.3 0.1-0.8 0-1.5 0-2.2 0-11 0-11-11.3-11-1.1 0-2.2-0.1-3.3 0.1-4.1 0.6-5.2-1.1-5.2-5.2 0.2-21.3 0-42.7 0.2-64 0-3.8-0.9-6.6-3.7-9.2-4.1-3.9-7.9-8.2-11.8-12.4-1.3-1.4-2.6-2.4-5.3-2.9 0 2.3 0 4.4 0 6.5 0 45-0.1 90.1 0.1 135.1 0 4.8-1.1 6.8-6.1 6.1-5.2-0.6-11.9 2.3-15.2-1.3-3-3.3-0.8-9.9-0.9-15 0-24.1-0.1-48.2 0.1-72.2 0-4.7-1.4-6-5.9-5.8-7.3 0.4-14.7 0.4-22 0-4.3-0.2-5.6 1.1-5.6 5.5 0.2 27.4-0.1 54.8 0.2 82.2 0 5.3-1.3 6.9-6.7 6.7-10.9-0.4-10.6-0.1-10.3-10.8 0.4-10.3-0.2-20.6-0.1-30.9 0-3.8-1.5-4.9-5.3-4.8-9.8 0.1-9.8-0.1-9.8-9.9 0-23.9 0-47.8 0.1-71.7 0-4.2-1-5.8-5.5-5.7-14.3 0.1-14.3-0.1-14.3 14.3-0.1 37.8-0.1 75.7 0 113.6 0 4.4-0.9 6.4-5.7 5.9-3.2-0.4-6.6-0.4-9.9 0-4.3 0.4-5.6-1.2-5.6-5.6 0.2-20.2 0.1-40.4 0.1-60.6 0-2.2 0.4-4.4-1-7-4.3 5.2-6.5 11.3-10.2 16.3-6.8 9-9.2 18.8-8.2 29.9 0.6 7.3 0 14.7 0.2 22.1 0 3.4-0.7 5-4.6 4.9-6-0.3-12.1-0.2-18.2-0.1-2.9 0.1-4.5-0.7-5.3-4-12.2-54.5-2.1-103.8 35.6-145.7 25-27.8 56.6-45.4 93.7-50.9 77.8-11.7 145.3 28.9 174.3 98.1 15 35.7 16.5 72 4.1 107.7-13.3 38.5-37.9 68.9-74 89.5-29.7 17-61.6 22.1-94.9 19.5-31.1-2.4-58.4-15-83.3-33.9-21.9-16.7-37.4-37.8-48.1-62.9-0.7-1.6-3.1-3.9-0.5-5.1 3.1-1.5 3.9 1.7 4.8 3.8 8.3 19.5 19.7 37 35.6 51.1 25.2 22.6 54.1 37.8 88.3 41.9 41.8 5 79.7-4.7 113.3-30.1 25.4-19.2 43.2-44.1 53.3-74.4 1.4-4.1 0.1-4.8-3.5-4.7-4.8 0.2-9.6-0.2-14.3 0.2-4.3 0.3-5.6-1.1-5.6-5.5 0.2-25.2 0-50.4 0.2-75.5 0.1-5-1.1-8.8-4.9-12.1-3.1-2.7-5.7-6.1-8.6-9.2q-0.8 0.2-1.7 0.3z"/><path class="c" d="m94.4 202.7c-5-5.3-12-3.7-17.4-6.4-5.3-2.8-6.7-10.6-3.3-16.6 2.8-4.9 9.5-6.7 15-4 5.4 2.6 8.3 10 5 15.5-2.5 4.2-3.5 7.4 0.7 11.5z"/><path class="d" d="m234.4 174.7c7.1 0 11.4 4.5 11.3 11.9 0 7.1-4.6 11.6-11.8 11.5-6.5-0.2-11.2-5-11.2-11.7 0-7.1 4.7-11.7 11.7-11.7z"/><path class="e" d="m105.8 186q0-2.5 0-5c0-6.8 0.1-6.8 7.8-6.2 5.6 0.4 8.5 3.5 7.6 8.4-0.7 3.8-3.4 5.9-6.9 5.8-4 0-5.9 1-5.3 5.3 0.2 1.2 0.6 3.4-1.6 3.4-2.1-0.1-1.5-2.2-1.5-3.5-0.1-2.7-0.1-5.5-0.1-8.2z"/><path class="f" d="m213 178.1c-13-0.3-14.8 0.8-14.8 8.9 0.1 4 1.8 6.5 5.4 8.1 3.5 1.6 6.5-0.9 10.4-1.5-4 5.3-10.9 5.9-15.3 2.1-5.1-4.5-5.3-13.6-0.3-18.3 4.4-4 11.2-3.7 14.6 0.7z"/><path class="g" d="m154 194.7c2.9-1.4 4.2 0.7 5.9 0.9 2.6 0.3 4.9-0.2 5.9-2.8 1.1-2.9-0.9-4-3-4.9-0.5-0.2-1-0.5-1.6-0.7-3-1-5.8-2.3-5.9-6.2-0.1-2.7 1.1-4.8 3.5-5.7 3.3-1.2 6.7-1.2 9.7 1.7-2.3 2.3-4-0.2-5.8 0-2 0.3-3.7 0.7-4.4 2.6-0.8 2.3 0.9 3.3 2.6 4.2q1 0.5 2 0.9c3.1 1.2 6.1 2.5 6 6.7-0.1 3-1.6 5.1-4.1 6-3.8 1.4-7.4 0.9-10.8-2.7z"/><path class="h" d="m130 194.6c2.7-1.3 3.9 0.7 5.6 1 2.5 0.4 4.9 0.2 6-2.5 1.2-3-0.9-4.3-3.2-5.3q-0.8-0.4-1.5-0.6c-3.2-1-5.7-2.5-5.9-6.3-0.1-2.8 1.1-4.8 3.6-5.6 3.3-1.1 6.6-1.2 9.5 1.6-2 2.5-3.5 0.1-5.2 0.1-2.2 0.1-4.1 0.4-4.9 2.7-0.7 2.2 1 3.3 2.7 4.1 1 0.5 2 0.8 3 1.3 3.1 1.3 5.4 3.1 4.9 6.9-0.4 3.2-2.2 5.1-5.1 5.8-3.5 0.7-6.9 0.4-9.5-3.2z"/><path class="i" d="m257.3 194.7c1 0 1.9 0.3 2 1.4 0.2 1-0.5 1.7-1.5 1.8-1 0.1-1.8-0.3-2-1.4-0.1-1.1 0.5-1.7 1.5-1.8z"/><path class="a" d="m182 8.6c0 22.8 0 44.9 0 66.9 0 27.3-0.1 54.7 0.1 82.1 0.1 4.8-0.9 6.8-6.2 6.6-4.7-0.2-7.2-0.4-7.1-6.4 0.3-27.4 0-54.7 0.2-82.1 0.1-4.5-0.9-6.1-5.7-6-10.4 0.4-20.9 0.4-31.4 0-4.4-0.1-5.5 1.4-5.5 5.6 0.2 27.8 0.1 55.5 0.1 83.3-0.1 1.9 1.2 4.8-2.2 5.3-3.2 0.6-5.6 0.3-5.5-4.2 0.3-12.1-0.1-24.3 0.2-36.4 0.1-4.3-1.2-5.8-5.6-5.7-9.8 0.2-9.8 0-9.8-9.7-0.1-24.1-0.1-48.2 0-72.3 0.1-4.1-1-5.5-5.2-5.2-6.2 0.3-12.5 0.2-18.7-0.1-4-0.2-5.6 1.3-5.6 5.3 0.2 11.8-0.2 23.5 0.2 35.3 0.8 30.1 0.4 60.2 0.1 90.4 0 0.9 0.2 2.2-0.8 2.3-3 0.3-6.2 0.7-9.2 0.1-2.7-0.5-1.6-3.3-1.6-5.1-0.1-26.9 0-53.7 0-81.2-3.1 2.7-4.4 6.1-6.2 9-5.7 9.4-10.8 19.2-16.8 28.4-4.2 6.5-6 13.1-5.5 20.7 0.4 7.9-0.1 15.8 0.1 23.7 0.2 4-1.2 4.9-5 4.9-13.9 0-14.3 0.2-16.6-13.5-7.3-44.5 2.3-85.2 30.3-120.6 24.5-31.1 56.8-51 95.8-57.3 58-9.3 107.1 8.2 145.9 52.9 14.3 16.6 23.5 36 30.4 56.8 8.4 25.1 8.2 50.2 3.4 75.8-0.9 4.7-3 6.3-7.7 5.9-3.8-0.4-7.7-0.3-11.5 0-4.3 0.4-5.2-1.3-5.2-5.3 0.2-24.7 0-49.3 0.2-73.9 0-4.6-1.2-8-4.5-11.1-6.6-6.3-12.2-13.6-19.8-20.3 0 2.6 0 4.4 0 6.1 0 32.9-0.1 65.8 0.1 98.7 0 4.6-1.2 6.1-5.8 5.9-4.1-0.2-6.9-0.1-6.6-5.7 0.5-8.8 0.1-17.7 0.3-26.5 0-3.3-1-4.6-4.4-4.4-6.1 0.2-12.1-0.1-18.2 0.1-3 0.1-4.5-0.8-4.1-4q0-0.3 0-0.6c-0.5-4.3 2-10-1.3-12.5-2.7-2.1-8.1-1-12.3-0.7-4.7 0.4-6.3-0.9-6.2-6 0.3-20.4 0-40.8 0.2-61.2 0-3.3-0.8-5.8-3.3-8.2-8.6-8.4-16.1-18-26.5-25.9z"/><path class="j" d="m91.6 186.2c0.1 5.6-3.3 9.5-8.3 9.5-4.7-0.1-8.2-3.9-8.3-9.1-0.1-5.6 3.4-9.5 8.4-9.5 4.8 0.1 8.1 3.7 8.2 9.1z"/><path class="k" d="m242.5 186.4c0 5.4-3.3 9.2-8 9.2-5.2 0-8.6-3.8-8.6-9.3 0-5.4 3.3-9.1 8.1-9.2 5-0.1 8.5 3.7 8.5 9.3z"/><path class="l" d="m109.1 182.2c0-2.8-0.5-5.4 3.4-5.1 3.4 0.2 5.6 1.3 5.5 5.1-0.1 3.7-2.7 4.4-5.6 4.7-4.3 0.4-3-2.9-3.3-4.7z"/><path class="m" d="m0.7 173.2h330.3v114.2h-330.3z"/><path class="m" d="m8-37h314.7v40.7h-314.7z"/><path class="m" d="m4.6 0.8h62.2v40.7l-62.2-0.1z"/><path class="m" d="m250.7 0.8h62.2v40.7l-62.2-0.1z"/><path class="m" d="m312.9 46.3h18.1v129.9h-18.1z"/><path class="m" d="m0.7 43.3h18.1v129.9h-18.1z"/><path class="m" d="m9.8 32.5h25.9v42.5h-25.9z"/><path class="m" d="m296.7 35.3h26v42.5h-26z"/></svg>